<?xml version="1.0" encoding="UTF-8"?>
<!-- Svg Vector Icons : http://www.onlinewebfonts.com/icon -->
<!DOCTYPE svg PUBLIC "-//W3C//DTD SVG 1.1//EN" "http://www.w3.org/Graphics/SVG/1.1/DTD/svg11.dtd">
<svg version="1.1" xmlns="http://www.w3.org/2000/svg" xmlns:xlink="http://www.w3.org/1999/xlink" x="0px" y="0px" viewBox="0 0 1000 1000" enable-background="new 0 0 1000 1000" xml:space="preserve">
<metadata> Svg Vector Icons : http://www.onlinewebfonts.com/icon </metadata>
<g><g transform="translate(0.000000,511.000000) scale(0.100000,-0.100000)"><path d="M2040.9,2350.7c-961.3-137.9-1769.5-944.1-1915-1907.3c-84.3-561.1,36.4-1082,367.7-1591.4c97.7-151.3,467.3-515.1,628.1-620.5c291.1-187.7,586-302.6,903.9-350.4c279.6-42.1,5668.4-42.1,5948,0c480.7,72.8,919.2,302.6,1271.6,666.4c352.3,363.8,559.2,769.8,630,1239c82.4,551.5-40.2,1080-369.6,1585.6c-38.3,61.3-166.6,204.9-281.5,321.7c-289.2,289.2-536.2,444.3-888.6,563c-354.3,118.7-254.7,114.9-3355.1,113C3427.4,2368,2104.1,2360.3,2040.9,2350.7z M7872.1,1969.7C8686,1870.1,9300.7,1314.7,9473,523.8c44.1-208.7,44.1-614.7,0-823.4c-157-716.2-681.7-1244.8-1409.4-1419c-134.1-32.5-331.3-34.5-2939.5-42.1c-1957.1-3.8-2851.4,0-2981.7,15.3c-459.6,51.7-815.8,220.2-1127.9,534.3C549.2-742,374.9-29.6,558.7,646.4c191.5,704.7,798.5,1225.6,1539.7,1321.3C2293.7,1992.6,7671,1994.6,7872.1,1969.7z"/><path d="M7270.8,1651.8c-584.1-130.2-1068.6-595.6-1219.8-1172c-55.5-203-55.5-530.5-1.9-733.5c157-589.8,653-1059,1248.6-1177.7c794.7-158.9,1637.3,417.5,1809.7,1240.9c34.5,157,36.4,423.2,7.7,582.2c-99.6,541.9-538.1,1032.2-1089.6,1216C7801.2,1682.4,7487.2,1701.6,7270.8,1651.8z M7975.5,1226.6C8454.3,1061.9,8753,634.9,8753,112.1c0-519-298.7-947.9-771.7-1112.6c-566.9-197.2-1185.4,32.6-1447.8,538.1c-97.7,187.7-136,344.7-136,574.5s38.3,386.8,136,574.5c160.9,310.2,463.4,528.5,825.4,593.7C7533.1,1310.9,7797.4,1287.9,7975.5,1226.6z"/><path d="M2337.8,868.5c-423.2-118.7-668.3-568.8-538.1-988.2c95.8-306.4,358.1-517,679.8-547.7c398.3-36.4,762.2,247,836.9,651.1c82.3,446.2-266.2,880.9-725.8,905.8C2494.8,895.3,2406.7,887.7,2337.8,868.5z M2730.3,535.3c99.6-46,231.7-189.6,256.6-281.5c65.1-233.6-30.6-451.9-239.4-555.4c-91.9-44-120.6-49.8-239.4-42.1c-158.9,11.5-256.6,68.9-352.4,203c-47.9,68.9-57.5,105.3-63.2,222.1c-7.7,155.1,15.3,231.7,103.4,335.1C2314.8,556.4,2561.8,611.9,2730.3,535.3z"/><path d="M3492.5,851.3l-53.6-45.9V112.1v-693.2l53.6-46c59.4-49.8,103.4-57.5,172.3-24.9c80.4,36.4,90,90,90,519v402.2l350.4-450c402.1-520.9,440.4-551.5,563-446.2l53.6,46v693.2v693.2l-53.6,45.9c-68.9,57.5-130.2,57.5-199.2,0l-53.6-45.9L4406,384l-9.6-421.3l-344.7,446.2C3653.4,926,3615.1,956.6,3492.5,851.3z"/></g></g>
</svg>